<?xml version="1.0" encoding="UTF-8"?>
<svg version="1.1" xmlns="http://www.w3.org/2000/svg" width="106" height="96">
<path d="M0 0 C3.11328125 1.953125 3.11328125 1.953125 5.75 3.9375 C6.52730469 4.48921875 7.30460937 5.0409375 8.10546875 5.609375 C15.39736717 11.35533623 21.60744692 19.83677621 23.75 28.9375 C24.20005402 33.69369437 24.21432361 38.41289801 24.1875 43.1875 C24.20748047 44.43402344 24.22746094 45.68054687 24.24804688 46.96484375 C24.24066456 61.09460211 20.49145392 71.12642869 10.578125 81.12890625 C6.04279124 85.374917 1.55039532 88.67119467 -4.25 90.9375 C-5.07757813 91.29328125 -5.90515625 91.6490625 -6.7578125 92.015625 C-11.82216087 93.35252233 -16.72102312 93.30606388 -21.9375 93.3125 C-22.96294922 93.33699219 -23.98839844 93.36148438 -25.04492188 93.38671875 C-35.43563958 93.42610239 -44.08393702 90.68817179 -52.125 84.0625 C-52.91777344 83.44955078 -52.91777344 83.44955078 -53.7265625 82.82421875 C-63.05111137 75.4153569 -69.18318632 64.67064226 -71.25 52.9375 C-72.43570232 39.25854393 -70.74227815 26.26329623 -62.078125 15.10546875 C-61.47484375 14.39003906 -60.8715625 13.67460937 -60.25 12.9375 C-59.74984375 12.31488281 -59.2496875 11.69226562 -58.734375 11.05078125 C-45.03656006 -4.34196533 -18.36829347 -8.99301992 0 0 Z M-52.25 13.9375 C-52.25 14.5975 -52.25 15.2575 -52.25 15.9375 C-52.91 15.9375 -53.57 15.9375 -54.25 15.9375 C-56.59425684 18.71042094 -58.40734772 21.81627268 -60.25 24.9375 C-60.88421875 26.00484375 -60.88421875 26.00484375 -61.53125 27.09375 C-66.06286352 36.28645171 -65.55530134 47.88793033 -63.4375 57.703125 C-59.79058021 68.39062606 -51.96487981 77.20913279 -42.25 82.9375 C-30.52420983 88.45447541 -19.76447371 89.46209356 -7.140625 85.9921875 C-3.23585042 84.56747245 0.10429288 82.60764477 3.5703125 80.33203125 C5.75 78.9375 5.75 78.9375 9 77.625 C15.85991871 73.41550443 19.6192176 64.45596019 21.75 56.9375 C24.39290085 42.7198509 20.95003509 31.1046479 13.75 18.9375 C6.4985491 9.12340044 -4.24897449 3.83962332 -16.25 1.9375 C-29.40926267 0.75156991 -42.54278868 4.85656038 -52.25 13.9375 Z " fill="#9B64CA" transform="translate(76.25,3.0625)"/>
<path d="M0 0 C9.0315565 -0.81795229 18.42656849 5.09411968 25.1953125 10.625 C33.45762745 18.53270916 38.75561085 27.51427792 39.19140625 39.015625 C39.20856384 41.53119183 39.209445 44.04691436 39.1953125 46.5625 C39.2252832 48.43228516 39.2252832 48.43228516 39.25585938 50.33984375 C39.24847706 64.46960211 35.49926642 74.50142869 25.5859375 84.50390625 C21.05060374 88.749917 16.55820782 92.04619467 10.7578125 94.3125 C9.94054687 94.67085938 9.12328125 95.02921875 8.28125 95.3984375 C3.05194731 96.75504152 -2.05102038 96.60098778 -7.4296875 96.5625 C-8.52216797 96.57023437 -9.61464844 96.57796875 -10.74023438 96.5859375 C-11.78630859 96.58335938 -12.83238281 96.58078125 -13.91015625 96.578125 C-14.86172607 96.57586914 -15.8132959 96.57361328 -16.79370117 96.57128906 C-19.2421875 96.3125 -19.2421875 96.3125 -22.2421875 94.3125 C-18.2821875 94.3125 -14.3221875 94.3125 -10.2421875 94.3125 C-11.2321875 93.3225 -12.2221875 92.3325 -13.2421875 91.3125 C-11.540625 91.14814453 -11.540625 91.14814453 -9.8046875 90.98046875 C-8.28379567 90.82086899 -6.76296546 90.6606812 -5.2421875 90.5 C-4.49839844 90.42974609 -3.75460938 90.35949219 -2.98828125 90.28710938 C5.13066206 89.40461554 11.52510854 86.61367622 18.6328125 82.625 C24.54456198 79.3125 24.54456198 79.3125 26.7578125 79.3125 C27.02464844 78.77753906 27.29148438 78.24257812 27.56640625 77.69140625 C28.45038171 75.9263536 29.33915141 74.16370029 30.23046875 72.40234375 C30.75511719 71.36207031 31.27976563 70.32179688 31.8203125 69.25 C32.34753906 68.20714844 32.87476563 67.16429688 33.41796875 66.08984375 C37.84278264 56.91770768 37.58001829 45.94610543 34.7578125 36.3125 C31.75765009 29.02418771 28.62423842 22.74437586 22.7578125 17.3125 C21.9328125 16.4875 21.1078125 15.6625 20.2578125 14.8125 C10.74159713 6.96100115 -2.31946514 5.60839402 -14.11328125 6.5390625 C-16.49270674 6.77531751 -18.86789587 7.02960568 -21.2421875 7.3125 C-18.2421875 5.3125 -18.2421875 5.3125 -14.2421875 5.3125 C-13.9121875 3.9925 -13.5821875 2.6725 -13.2421875 1.3125 C-10.57431135 1.03324567 -7.90810453 0.78020826 -5.234375 0.5625 C-3.48563079 0.41639082 -1.73803806 0.24223527 0 0 Z " fill="#C09EDB" transform="translate(61.2421875,-0.3125)"/>
<path d="M0 0 C0.99 0.86625 1.98 1.7325 3 2.625 C4.32942708 3.75461339 5.66294754 4.8794227 7 6 C7.62519531 6.5259375 8.25039063 7.051875 8.89453125 7.59375 C14.92104648 12.40514302 21.49825354 15.26221011 29 17 C29 17.66 29 18.32 29 19 C30.2375 18.979375 31.475 18.95875 32.75 18.9375 C37.40487412 18.94570965 40.06276108 19.37517405 44 22 C13.99173375 22.56784201 13.99173375 22.56784201 4 13 C3.2890625 10.9140625 3.2890625 10.9140625 3 9 C2.36345658 7.6520257 1.70394612 6.31403276 1 5 C1.99 5.33 2.98 5.66 4 6 C3.34 5.38125 2.68 4.7625 2 4.125 C0 2 0 2 0 0 Z " fill="#9B62C9" transform="translate(19,73)"/>
<path d="M0 0 C0.66 0 1.32 0 2 0 C0.53058985 3.65345147 -1.36002295 5.32226958 -4.5625 7.5625 C-5.36816406 8.14128906 -6.17382812 8.72007813 -7.00390625 9.31640625 C-15.00546166 13.81271705 -22.29384643 14.45110124 -31.375 14.3125 C-32.99341797 14.31733398 -32.99341797 14.31733398 -34.64453125 14.32226562 C-42.59852472 14.26765019 -42.59852472 14.26765019 -46 12 C-42.04 12 -38.08 12 -34 12 C-34.99 11.01 -35.98 10.02 -37 9 C-35.865625 8.89042969 -34.73125 8.78085938 -33.5625 8.66796875 C-32.04160817 8.50836899 -30.52077796 8.3481812 -29 8.1875 C-28.25621094 8.11724609 -27.51242188 8.04699219 -26.74609375 7.97460938 C-20.67296075 7.31448622 -15.34697705 5.82562384 -9.9375 2.875 C-7.06929861 1.57968324 -4.10160646 1.40964614 -1 1 C-0.67 0.67 -0.34 0.34 0 0 Z " fill="#9E66CC" transform="translate(85,82)"/>
<path d="M0 0 C2.50154753 0.18226212 4.97005798 0.52048021 7.45703125 0.84375 C9.93523519 0.9960206 11.62853085 0.61730217 14 0 C14.66 0.33 15.32 0.66 16 1 C16 1.66 16 2.32 16 3 C14.68 3 13.36 3 12 3 C12.99 4.485 12.99 4.485 14 6 C16.51083114 4.74458443 16.87125446 3.49936512 18 1 C18.99 1 19.98 1 21 1 C22.25664978 3.90600261 23 5.79604584 23 9 C15 9 7 9 -1 9 C-1.09765625 2.84765625 -1.09765625 2.84765625 -1 1 C-0.67 0.67 -0.34 0.34 0 0 Z M1 3 C1 4.32 1 5.64 1 7 C1.66 7 2.32 7 3 7 C3.33 6.01 3.66 5.02 4 4 C3.01 3.67 2.02 3.34 1 3 Z " fill="#D0C1DE" transform="translate(64,44)"/>
<path d="M0 0 C3 1 3 1 4 3 C4.66 2.01 5.32 1.02 6 0 C6.99 0 7.98 0 9 0 C9.33 0.66 9.66 1.32 10 2 C11.98 2 13.96 2 16 2 C15.814375 2.763125 15.62875 3.52625 15.4375 4.3125 C14.77180827 7.08967375 14.77180827 7.08967375 16 10 C13.03 10 10.06 10 7 10 C6.67 9.34 6.34 8.68 6 8 C4.68 8 3.36 8 2 8 C1.67 8.66 1.34 9.32 1 10 C0.34 10 -0.32 10 -1 10 C-1.33 8.35 -1.66 6.7 -2 5 C-2.66 6.65 -3.32 8.3 -4 10 C-4.66 10 -5.32 10 -6 10 C-6.66 7.36 -7.32 4.72 -8 2 C-6.68 2.33 -5.36 2.66 -4 3 C-1.81296615 2.62092718 -1.81296615 2.62092718 0 2 C0 1.34 0 0.68 0 0 Z " fill="#CEB6DE" transform="translate(46,43)"/>
<path d="M0 0 C0 0.66 0 1.32 0 2 C0.8971875 2.37125 0.8971875 2.37125 1.8125 2.75 C4.28647521 4.16370012 5.43370255 5.65055383 7 8 C2.32010128 8.19499578 -1.27985017 7.68806094 -5.83984375 6.44921875 C-13.05353598 4.94908384 -20.7629278 6.13771055 -28 7 C-25 5 -25 5 -21 5 C-20.67 3.68 -20.34 2.36 -20 1 C-13.29980211 0.29867087 -6.73742646 -0.11044961 0 0 Z " fill="#B994D8" transform="translate(68,0)"/>
<path d="M0 0 C1.67540664 0.64438717 3.34183216 1.31246699 5 2 C5.99 2 6.98 2 8 2 C8.639375 2.350625 9.27875 2.70125 9.9375 3.0625 C12.42696982 4.19407719 13.4782018 3.90064221 16 3 C16 4.98 16 6.96 16 9 C16.66 9 17.32 9 18 9 C18 9.66 18 10.32 18 11 C15.66666667 11 13.33333333 11 11 11 C10.195625 11.061875 9.39125 11.12375 8.5625 11.1875 C5.50069264 10.96346532 4.956645 10.23616572 3 8 C2.34 8 1.68 8 1 8 C1 8.99 1 9.98 1 11 C0.01 11 -0.98 11 -2 11 C-2 7.7 -2 4.4 -2 1 C-1.34 0.67 -0.68 0.34 0 0 Z M1 3 C2 6 2 6 2 6 Z M8 5 C8 6.32 8 7.64 8 9 C8.66 8.67 9.32 8.34 10 8 C10 7.01 10 6.02 10 5 C9.34 5 8.68 5 8 5 Z " fill="#B39ACC" transform="translate(21,42)"/>
<path d="M0 0 C0.71542969 0.19335938 1.43085937 0.38671875 2.16796875 0.5859375 C8.80943437 2.3214822 15.38911195 3.6205377 22.1875 4.5703125 C26.22160162 5.18663358 28.56120983 5.70747322 32 8 C10.99082569 8.39755352 10.99082569 8.39755352 2 6 C1.34 4.02 0.68 2.04 0 0 Z " fill="#7833B3" transform="translate(31,87)"/>
<path d="M0 0 C0.33 0 0.66 0 1 0 C1.33 5.61 1.66 11.22 2 17 C2.66 17 3.32 17 4 17 C3.938125 15.576875 3.938125 15.576875 3.875 14.125 C3.85515492 9.29272342 4.94225804 4.69372996 6 0 C6.33 0 6.66 0 7 0 C7.33 7.92 7.66 15.84 8 24 C6.02 23.67 4.04 23.34 2 23 C0.22589949 17.68468311 -0.2577668 13.14381195 -0.125 7.5625 C-0.11597656 6.83095703 -0.10695313 6.09941406 -0.09765625 5.34570312 C-0.07436153 3.56365702 -0.0385019 1.78178241 0 0 Z " fill="#9255C5" transform="translate(5,40)"/>
<path d="M0 0 C1.88606019 3.14552231 2.1705204 4.95242233 1.5390625 8.546875 C1.39726562 9.39121094 1.25546875 10.23554687 1.109375 11.10546875 C0.94953125 11.97816406 0.7896875 12.85085937 0.625 13.75 C0.39683594 15.08224609 0.39683594 15.08224609 0.1640625 16.44140625 C-0.21244987 18.62988438 -0.60081057 20.81556436 -1 23 C-1.66 23 -2.32 23 -3 23 C-3.97299156 18.14270355 -4.12038805 13.5499375 -4.0625 8.625 C-4.05798828 7.88894531 -4.05347656 7.15289062 -4.04882812 6.39453125 C-4.03715142 4.59631842 -4.01922011 2.79814803 -4 1 C-2.68 0.67 -1.36 0.34 0 0 Z " fill="#7B33B9" transform="translate(10,34)"/>
<path d="M0 0 C0.66 0 1.32 0 2 0 C1.53333258 7.31112287 -1.24594143 13.1734662 -6.375 18.4375 C-9.56779572 20.33797364 -12.389301 21.15042376 -16 22 C-16 21.01 -16 20.02 -16 19 C-10.25 16 -10.25 16 -8 16 C-7.73445313 15.46890625 -7.46890625 14.9378125 -7.1953125 14.390625 C-4.796875 9.59375 -2.3984375 4.796875 0 0 Z " fill="#C0A6D7" transform="translate(96,63)"/>
<path d="M0 0 C0.99 0 1.98 0 3 0 C4.66631613 4.99894838 4.18593354 10.21722155 4.18530273 15.45166016 C4.1874922 17.4927242 4.20567052 19.53325007 4.22460938 21.57421875 C4.22654297 22.85941406 4.22847656 24.14460938 4.23046875 25.46875 C4.23457764 26.64888672 4.23868652 27.82902344 4.24291992 29.04492188 C4 32 4 32 2 35 C0.9282567 31.65080219 1.0853842 29.03490736 1.5 25.5625 C2.32533817 16.91761178 1.50229066 8.52995542 0 0 Z " fill="#E6DFEC" transform="translate(96,29)"/>
<path d="M0 0 C0.66 0 1.32 0 2 0 C0.50589642 3.80700968 -1.6186877 5.49761624 -4.9375 7.8125 C-5.81277344 8.43769531 -6.68804687 9.06289062 -7.58984375 9.70703125 C-8.78287109 10.34705078 -8.78287109 10.34705078 -10 11 C-10.99 10.67 -11.98 10.34 -13 10 C-12.34 9.67 -11.68 9.34 -11 9 C-11.66 8.34 -12.32 7.68 -13 7 C-12 4 -12 4 -10.375 2.875 C-7.2985746 1.74158012 -4.24155718 1.42813019 -1 1 C-0.67 0.67 -0.34 0.34 0 0 Z " fill="#A47BC7" transform="translate(85,82)"/>
<path d="M0 0 C2.98770538 2.56089033 4.54473565 5.36183914 6 9 C5.625 11.5625 5.625 11.5625 5 14 C5.37722015 16.72502965 5.37722015 16.72502965 6 19 C3.00075426 16.42280381 1.5828817 13.46912471 -0.125 9.9375 C-0.64320312 8.87402344 -1.16140625 7.81054688 -1.6953125 6.71484375 C-2.12585938 5.81894531 -2.55640625 4.92304688 -3 4 C-3.33 3.34 -3.66 2.68 -4 2 C-2.68 1.34 -1.36 0.68 0 0 Z " fill="#CFBBDF" transform="translate(92,18)"/>
<path d="M0 0 C0.61875 0.33 1.2375 0.66 1.875 1 C4.41505971 2.19532222 5.41558539 1.92300522 8 1 C8 2.98 8 4.96 8 7 C8.66 7 9.32 7 10 7 C10 7.66 10 8.32 10 9 C6 9 2 9 -2 9 C-0.66666667 7 0.66666667 5 2 3 C1.01 3.33 0.02 3.66 -1 4 C-1.33 3.01 -1.66 2.02 -2 1 C-1.34 0.67 -0.68 0.34 0 0 Z " fill="#C1AECF" transform="translate(29,44)"/>
<path d="M0 0 C1.89492188 0.01353516 1.89492188 0.01353516 3.828125 0.02734375 C4.79234375 0.03894531 5.7565625 0.05054688 6.75 0.0625 C6.75 0.3925 6.75 0.7225 6.75 1.0625 C3.12 1.0625 -0.51 1.0625 -4.25 1.0625 C-4.58 2.3825 -4.91 3.7025 -5.25 5.0625 C-12.95731707 7.58219981 -12.95731707 7.58219981 -16.25 6.0625 C-16.58 5.4025 -16.91 4.7425 -17.25 4.0625 C-11.04243449 0.81763621 -7.02193644 -0.06501793 0 0 Z " fill="#8A4FB7" transform="translate(52.25,-0.0625)"/>
<path d="M0 0 C-4 2 -4 2 -8 4 C-8 4.66 -8 5.32 -8 6 C-7.01 6.66 -6.02 7.32 -5 8 C-12.0547046 12.07877462 -12.0547046 12.07877462 -16 11.75 C-16.66 11.5025 -17.32 11.255 -18 11 C-14.25 7.125 -14.25 7.125 -12 6 C-12.66 5.34 -13.32 4.68 -14 4 C-4.58997722 -0.59225513 -4.58997722 -0.59225513 0 0 Z " fill="#BD92DE" transform="translate(45,0)"/>
<path d="M0 0 C0.99 0.33 1.98 0.66 3 1 C2.7834375 1.8353125 2.7834375 1.8353125 2.5625 2.6875 C1.97230872 5.11384195 1.476571 7.54906345 1 10 C0.34 10 -0.32 10 -1 10 C-1.33 8.35 -1.66 6.7 -2 5 C-2.66 6.65 -3.32 8.3 -4 10 C-4.66 10 -5.32 10 -6 10 C-6.66 7.36 -7.32 4.72 -8 2 C-6.68 2.33 -5.36 2.66 -4 3 C-1.81296615 2.62092718 -1.81296615 2.62092718 0 2 C0 1.34 0 0.68 0 0 Z " fill="#C8B4D9" transform="translate(46,43)"/>
<path d="M0 0 C5.01113235 1.4317521 6.94469549 3.98445693 10 8 C9.67 8.66 9.34 9.32 9 10 C8.67 10 8.34 10 8 10 C8.99 11.485 8.99 11.485 10 13 C7.6875 12.875 7.6875 12.875 5 12 C2.97798569 8.79266696 2 6.80845564 2 3 C1.34 3 0.68 3 0 3 C0 2.01 0 1.02 0 0 Z " fill="#8441BA" transform="translate(14,71)"/>
<path d="M0 0 C1.21236328 0.30744141 1.21236328 0.30744141 2.44921875 0.62109375 C3.51785156 0.89050781 4.58648437 1.15992187 5.6875 1.4375 C7.27111328 1.83775391 7.27111328 1.83775391 8.88671875 2.24609375 C11.5828317 2.89897932 14.2757576 3.47941193 17 4 C13.3356845 6.442877 11.31446191 6.07844476 7 6 C6.01 6.495 6.01 6.495 5 7 C4.01 6.67 3.02 6.34 2 6 C0.8125 2.9375 0.8125 2.9375 0 0 Z " fill="#8D4DC4" transform="translate(31,87)"/>
<path d="M0 0 C-6.29657846 3.34262807 -12.76238347 5.65257198 -20 5 C-21.8203125 3.50390625 -21.8203125 3.50390625 -23 2 C-21.81921875 1.86722656 -20.6384375 1.73445313 -19.421875 1.59765625 C-17.86456738 1.4194102 -16.30727658 1.24101707 -14.75 1.0625 C-13.58404297 0.93198242 -13.58404297 0.93198242 -12.39453125 0.79882812 C-11.26337891 0.66831055 -11.26337891 0.66831055 -10.109375 0.53515625 C-9.07248535 0.41732788 -9.07248535 0.41732788 -8.01464844 0.29711914 C-5.96189493 0.0375497 -5.96189493 0.0375497 -3.86816406 -0.59594727 C-2 -1 -2 -1 0 0 Z " fill="#BF9ADB" transform="translate(71,89)"/>
<path d="M0 0 C1.67542976 0.28604898 3.34385343 0.61781233 5 1 C5.04241723 3.33294775 5.04092937 5.66702567 5 8 C4 9 4 9 1.4375 9.0625 C0.633125 9.041875 -0.17125 9.02125 -1 9 C-1.09765625 2.84765625 -1.09765625 2.84765625 -1 1 C-0.67 0.67 -0.34 0.34 0 0 Z M1 3 C1 4.32 1 5.64 1 7 C1.66 7 2.32 7 3 7 C3.33 6.01 3.66 5.02 4 4 C3.01 3.67 2.02 3.34 1 3 Z " fill="#A290B7" transform="translate(64,44)"/>
<path d="M0 0 C0.33 0.66 0.66 1.32 1 2 C0.34 2 -0.32 2 -1 2 C-1.2475 2.556875 -1.495 3.11375 -1.75 3.6875 C-3.21606015 6.39971127 -5.02989471 8.63587365 -7 11 C-7.33 9.02 -7.66 7.04 -8 5 C-5.31158141 2.74754119 -3.35358125 1.11786042 0 0 Z " fill="#9D64CB" transform="translate(23,17)"/>
<path d="M0 0 C0.33 0 0.66 0 1 0 C1.33 5.94 1.66 11.88 2 18 C2.66 18 3.32 18 4 18 C3.67 19.65 3.34 21.3 3 23 C-0.31860439 18.02209342 -0.12977499 13.60809905 -0.0625 7.75 C-0.05798828 7.00492188 -0.05347656 6.25984375 -0.04882812 5.4921875 C-0.03709246 3.6614236 -0.0191585 1.83070127 0 0 Z " fill="#C097DE" transform="translate(5,40)"/>
<path d="M0 0 C1.65 0 3.3 0 5 0 C4.814375 0.763125 4.62875 1.52625 4.4375 2.3125 C3.77180827 5.08967375 3.77180827 5.08967375 5 8 C3.35 8 1.7 8 0 8 C0 5.36 0 2.72 0 0 Z " fill="#B4A0C7" transform="translate(57,45)"/>
<path d="M0 0 C0.99 0 1.98 0 3 0 C3 1.98 3 3.96 3 6 C3.66 6 4.32 6 5 6 C5 6.66 5 7.32 5 8 C3.35 8 1.7 8 0 8 C-1.125 2.25 -1.125 2.25 0 0 Z " fill="#D1C0E2" transform="translate(34,45)"/>
<path d="M0 0 C1.98 0.495 1.98 0.495 4 1 C4.33 2.98 4.66 4.96 5 7 C3.35 7.33 1.7 7.66 0 8 C-1.125 2.25 -1.125 2.25 0 0 Z " fill="#D8C4E6" transform="translate(70,45)"/>
<path d="M0 0 C5.36040609 -0.36548223 5.36040609 -0.36548223 8.1875 1.25 C10.04157785 3.04014413 11.538194 4.88038129 13 7 C8.17737354 6.56157941 6.17965499 5.6182281 3 2 C2.01 1.34 1.02 0.68 0 0 Z " fill="#8451B1" transform="translate(62,1)"/>
<path d="M0 0 C0.99 0 1.98 0 3 0 C3.33 2.31 3.66 4.62 4 7 C2.02 7 0.04 7 -2 7 C-1.125 1.125 -1.125 1.125 0 0 Z " fill="#B8A4CF" transform="translate(82,45)"/>
<path d="M0 0 C0.66 0 1.32 0 2 0 C2.05406122 1.93719378 2.09282025 3.87481921 2.125 5.8125 C2.14820312 6.89144531 2.17140625 7.97039063 2.1953125 9.08203125 C2 12 2 12 0 15 C-1.09651823 11.58860997 -0.94215473 8.79344419 -0.5625 5.25 C-0.46066406 4.26515625 -0.35882813 3.2803125 -0.25390625 2.265625 C-0.17011719 1.51796875 -0.08632812 0.7703125 0 0 Z " fill="#D7CFE1" transform="translate(98,49)"/>
<path d="M0 0 C0.78375 0.268125 1.5675 0.53625 2.375 0.8125 C6.89239169 2.29233521 11.44270338 3.64902274 16 5 C16 5.33 16 5.66 16 6 C14.24929483 5.88529863 12.49942464 5.75780972 10.75 5.625 C9.77546875 5.55539063 8.8009375 5.48578125 7.796875 5.4140625 C5.05603469 5.00829564 3.28941334 4.54377872 1 3 C0.67 2.01 0.34 1.02 0 0 Z " fill="#BC91DC" transform="translate(32,85)"/>
<path d="M0 0 C-2.44568622 2.92746298 -2.44568622 2.92746298 -4.90112305 3.2487793 C-5.59761963 3.19117432 -6.29411621 3.13356934 -7.01171875 3.07421875 C-7.76904297 3.01943359 -8.52636719 2.96464844 -9.30664062 2.90820312 C-10.09232422 2.83537109 -10.87800781 2.76253906 -11.6875 2.6875 C-12.48478516 2.62626953 -13.28207031 2.56503906 -14.10351562 2.50195312 C-16.07016953 2.34886031 -18.03528989 2.17629291 -20 2 C-20 1.67 -20 1.34 -20 1 C-13.29980211 0.29867087 -6.73742646 -0.11044961 0 0 Z " fill="#C38BED" transform="translate(68,0)"/>
<path d="M0 0 C2.125 0.9375 2.125 0.9375 4 2 C3.01 2.495 3.01 2.495 2 3 C0.73854232 5.36186139 0.73854232 5.36186139 0 8 C0.33 8.99 0.66 9.98 1 11 C0.01 11 -0.98 11 -2 11 C-2 7.7 -2 4.4 -2 1 C-1.34 0.67 -0.68 0.34 0 0 Z " fill="#D6C9E3" transform="translate(21,42)"/>
<path d="M0 0 C0.99 0.33 1.98 0.66 3 1 C2.67 2.98 2.34 4.96 2 7 C1.34 7 0.68 7 0 7 C-0.33 7.66 -0.66 8.32 -1 9 C-2.25541557 5.23375329 -1.37061958 3.62811066 0 0 Z " fill="#782CB9" transform="translate(13,23)"/>
<path d="M0 0 C-1.98 2.31 -3.96 4.62 -6 7 C-6.66 6.67 -7.32 6.34 -8 6 C-6.53781513 1.3697479 -6.53781513 1.3697479 -4 -0.375 C-2 -1 -2 -1 0 0 Z " fill="#8A4EBA" transform="translate(21,16)"/>
<path d="M0 0 C0.33 0.99 0.66 1.98 1 3 C-0.48199902 2.55090939 -1.96055236 2.09043436 -3.4375 1.625 C-4.26121094 1.36976562 -5.08492188 1.11453125 -5.93359375 0.8515625 C-8 0 -8 0 -9 -2 C-5.1007255 -3.58859331 -3.25267293 -2.46148222 0 0 Z " fill="#CDB3E0" transform="translate(80,10)"/>
<path d="M0 0 C-2.48952921 2.66735273 -4.63408134 4.55746343 -8 6 C-8.33 5.01 -8.66 4.02 -9 3 C-5.92807025 0.26939578 -4.09590633 -0.34132553 0 0 Z " fill="#996BC2" transform="translate(34,5)"/>
<path d="M0 0 C0.66 0.33 1.32 0.66 2 1 C1.375 2.875 1.375 2.875 0 5 C-3.125 6.25 -3.125 6.25 -6 7 C-4.02 4.69 -2.04 2.38 0 0 Z " fill="#A87ACA" transform="translate(23,9)"/>
<path d="M0 0 C0.99 0.33 1.98 0.66 3 1 C2.855625 1.556875 2.71125 2.11375 2.5625 2.6875 C1.97230872 5.11384195 1.476571 7.54906345 1 10 C0.34 10 -0.32 10 -1 10 C-0.67 6.7 -0.34 3.4 0 0 Z " fill="#A691BB" transform="translate(46,43)"/>
<path d="M0 0 C2.62187494 1.04874998 3.79371361 1.64931313 5.25 4.125 C5.4975 4.74375 5.745 5.3625 6 6 C3.36 5.01 0.72 4.02 -2 3 C-1.34 2.67 -0.68 2.34 0 2 C0 1.34 0 0.68 0 0 Z " fill="#A37DC0" transform="translate(82,9)"/>
<path d="M0 0 C2.9375 0.375 2.9375 0.375 6 1 C6.33 1.66 6.66 2.32 7 3 C6.67 3.66 6.34 4.32 6 5 C4 4 2 3 0 2 C0 1.34 0 0.68 0 0 Z " fill="#B891D5" transform="translate(76,6)"/>
<path d="M0 0 C0.66 0.33 1.32 0.66 2 1 C0.35 2.65 -1.3 4.3 -3 6 C-3.66 5.67 -4.32 5.34 -5 5 C-4 2 -4 2 -2.0625 0.75 C-1.381875 0.5025 -0.70125 0.255 0 0 Z " fill="#D9BAEC" transform="translate(77,84)"/>
<path d="M0 0 C1.67542976 0.28604898 3.34385343 0.61781233 5 1 C4.67 1.99 4.34 2.98 4 4 C3.01 3.67 2.02 3.34 1 3 C0.67 4.32 0.34 5.64 0 7 C-0.38133299 5.0085944 -0.71325582 3.00720923 -1 1 C-0.67 0.67 -0.34 0.34 0 0 Z " fill="#CCBEDC" transform="translate(64,44)"/>
<path d="M0 0 C1.98 0.66 3.96 1.32 6 2 C5.67 2.99 5.34 3.98 5 5 C3.68 4.67 2.36 4.34 1 4 C0.67 2.68 0.34 1.36 0 0 Z " fill="#7A31B6" transform="translate(31,87)"/>
<path d="M0 0 C0.66 0 1.32 0 2 0 C3.5625 2.8125 3.5625 2.8125 5 6 C4.67 6.99 4.34 7.98 4 9 C0 2.25 0 2.25 0 0 Z " fill="#C7B4D4" transform="translate(93,21)"/>
<path d="M0 0 C1.32 1.32 2.64 2.64 4 4 C3.67 4.99 3.34 5.98 3 7 C1.68 6.01 0.36 5.02 -1 4 C-0.67 2.68 -0.34 1.36 0 0 Z " fill="#C4A7DB" transform="translate(88,13)"/>
<path d="M0 0 C0.66 0.33 1.32 0.66 2 1 C-2.75 5.875 -2.75 5.875 -5 7 C-5 6.01 -5 5.02 -5 4 C-2.5 1.8125 -2.5 1.8125 0 0 Z " fill="#9E6EC4" transform="translate(29,10)"/>
</svg>
